<?xml version="1.0" encoding="utf-8" ?>
<svg baseProfile="full" height="100%" version="1.1" viewBox="0,0,1000,120" width="100%" xmlns="http://www.w3.org/2000/svg" xmlns:ev="http://www.w3.org/2001/xml-events" xmlns:xlink="http://www.w3.org/1999/xlink"><defs /><rect fill="white" height="120" width="1000" x="0" y="0" /><path d="M0,0 M355.89764404296875,46.4291877746582 L355.94207763671875,46.471763610839844 L356.0358581542969,46.711761474609375 L356.1634826660156,47.30724334716797 L356.29107666015625,48.370391845703125 L356.3588562011719,49.893585205078125 L356.34637451171875,51.791690826416016 L356.24884033203125,53.915016174316406 L356.10479736328125,56.11569595336914 L355.952880859375,58.29010009765625 L355.8581848144531,60.380001068115234 L355.8309631347656,62.34466552734375 L355.8740539550781,64.15074157714844 L355.9597473144531,65.71238708496094 L356.0548095703125,66.9375 L356.121337890625,67.72628784179688 L356.1617736816406,68.11344909667969 M350.97607421875,59.2303466796875 L351.12939453125,59.19234848022461 L351.701416015625,59.108951568603516 L352.8841552734375,58.972679138183594 L354.7536315917969,58.79751205444336 L357.07012939453125,58.605430603027344 L359.5185546875,58.43463134765625 L361.4762268066406,58.318233489990234 L362.66473388671875,58.259464263916016 M371.05841064453125,56.763797760009766 L370.8890075683594,56.612613677978516 L370.55596923828125,56.46221923828125 L369.9827880859375,56.45353317260742 L369.1241455078125,56.778968811035156 L367.9425048828125,57.545738220214844 L366.5273742675781,58.78226852416992 L365.0610046386719,60.403350830078125 L363.8149719238281,62.221961975097656 L363.00732421875,63.9904899597168 L362.7730407714844,65.49188995361328 L363.1045837402344,66.58177185058594 L363.9214782714844,67.19664001464844 L365.07666015625,67.32141876220703 L366.4413757324219,66.953857421875 L367.8974304199219,66.11212158203125 L369.3487243652344,64.86528778076172 L370.6676025390625,63.32310104370117 L371.7737121582031,61.64164352416992 L372.58251953125,59.98076629638672 L373.0882263183594,58.49728775024414 L373.3358459472656,57.30244445800781 L373.4009704589844,56.458335876464844 L373.36322021484375,56.00115966796875 L373.2965393066406,55.973052978515625 L373.22491455078125,56.42303466796875 L373.15863037109375,57.41139221191406 L373.1133117675781,58.902889251708984 L373.094482421875,60.760963439941406 L373.1443176269531,62.79557800292969 L373.28466796875,64.79619598388672 L373.5318603515625,66.60884857177734 L373.87969970703125,68.0919189453125 L374.30780029296875,69.12612915039062 L374.7550964355469,69.65862274169922 L375.1203308105469,69.81132507324219 L375.3433837890625,69.75729370117188 M380.3033142089844,46.720367431640625 L380.36370849609375,46.69105529785156 L380.499267578125,46.813697814941406 L380.6972351074219,47.266136169433594 L380.9139404296875,48.20965576171875 L381.0819091796875,49.6615104675293 L381.1838073730469,51.544490814208984 L381.2314453125,53.70281982421875 L381.2502746582031,55.995849609375 L381.281494140625,58.3132438659668 L381.3581848144531,60.573978424072266 L381.473876953125,62.679039001464844 L381.6488342285156,64.5378646850586 L381.8781433105469,66.04639434814453 L382.14654541015625,67.14938354492188 L382.38775634765625,67.8174819946289 L382.55780029296875,68.12954711914062 M393.4978942871094,57.98998260498047 L393.25518798828125,57.76847839355469 L392.81475830078125,57.53562545776367 L392.13897705078125,57.4709587097168 L391.23370361328125,57.8003044128418 L390.06536865234375,58.60346603393555 L388.72918701171875,59.842018127441406 L387.40606689453125,61.38102340698242 L386.3598327636719,63.027252197265625 L385.81683349609375,64.58479309082031 L385.87615966796875,65.88501739501953 L386.508544921875,66.81392669677734 L387.5992126464844,67.29060363769531 L388.9764709472656,67.28446960449219 L390.4844055175781,66.79238891601562 L391.9875793457031,65.86966705322266 L393.3324279785156,64.59601593017578 L394.42431640625,63.10211181640625 L395.1797180175781,61.53052520751953 L395.573974609375,60.05381774902344 L395.6778869628906,58.81553649902344 L395.6025695800781,57.90625762939453 L395.45001220703125,57.3751335144043 L395.312744140625,57.26105499267578 L395.1904296875,57.60482406616211 L395.0760192871094,58.46980667114258 L395.0072326660156,59.84001159667969 L395.0059814453125,61.56395721435547 L395.1627502441406,63.46257781982422 L395.53094482421875,65.30833435058594 L396.0883483886719,66.92523193359375 L396.6355895996094,68.08333587646484 L397.0379943847656,68.73888397216797 M403.27044677734375,58.10899353027344 L403.29974365234375,58.47296905517578 L403.36309814453125,59.24958038330078 L403.45220947265625,60.469329833984375 L403.52935791015625,61.99491882324219 L403.5531005859375,63.64886474609375 L403.5089111328125,65.2269058227539 L403.41259765625,66.55908966064453 L403.3185729980469,67.55320739746094 L403.2613830566406,68.18719482421875 L403.249267578125,68.47232055664062 L403.2730712890625,68.42501831054688 L403.3347473144531,68.0077896118164 L403.44744873046875,67.17434692382812 L403.6656799316406,65.93370056152344 L404.0278015136719,64.3990478515625 L404.56280517578125,62.73079299926758 L405.2631530761719,61.0910758972168 L406.0921630859375,59.59706497192383 L406.9975280761719,58.35205841064453 L407.9637451171875,57.44026184082031 L408.96624755859375,56.94781494140625 L409.98211669921875,56.92209243774414 L410.9505920410156,57.369041442871094 L411.7997131347656,58.2492561340332 L412.4580383300781,59.51011276245117 L412.9160461425781,61.05230712890625 L413.17120361328125,62.734710693359375 L413.28326416015625,64.4007568359375 L413.3274230957031,65.89138793945312 L413.38433837890625,67.0870132446289 L413.4554138183594,67.87678527832031 L413.5335388183594,68.28401947021484 M424.68560791015625,58.479427337646484 L424.4948425292969,58.317230224609375 L424.1488952636719,58.13977813720703 L423.58282470703125,58.06986618041992 L422.7661437988281,58.275604248046875 L421.6539611816406,58.83430480957031 L420.338134765625,59.751380920410156 L418.9820251464844,60.940677642822266 L417.8437805175781,62.2950439453125 L417.104736328125,63.6733512878418 L416.851806640625,64.95301055908203 L417.05224609375,66.04263305664062 L417.6483459472656,66.87681579589844 L418.53436279296875,67.40154266357422 L419.61334228515625,67.5724868774414 L420.797119140625,67.36373138427734 L421.9957275390625,66.75470733642578 L423.10595703125,65.75955963134766 L424.0764465332031,64.42257690429688 L424.86724853515625,62.80711364746094 L425.45843505859375,60.969017028808594 L425.8782958984375,58.99020004272461 L426.17230224609375,56.95307922363281 L426.364501953125,54.966861724853516 L426.46563720703125,53.17238998413086 L426.4825134277344,51.70417022705078 L426.4291687011719,50.63269805908203 L426.34423828125,49.99437713623047 L426.28570556640625,49.812171936035156 L426.27325439453125,50.11428451538086 L426.2923583984375,50.957889556884766 L426.3345031738281,52.351722717285156 L426.41131591796875,54.199867248535156 L426.52398681640625,56.33916091918945 L426.6936950683594,58.59383773803711 L426.9136657714844,60.79945373535156 L427.1777648925781,62.87480163574219 L427.474853515625,64.7277603149414 L427.793701171875,66.28135681152344 L428.0540466308594,67.36325073242188 L428.2202453613281,67.95797729492188 M432.4407958984375,64.62464904785156 L432.6163635253906,64.69334411621094 L433.0496520996094,64.72547149658203 L433.821533203125,64.64160919189453 L434.92523193359375,64.35804748535156 L436.271484375,63.868167877197266 L437.72808837890625,63.19786071777344 L439.14239501953125,62.3948860168457 L440.38623046875,61.51132583618164 L441.365966796875,60.603328704833984 L442.0233154296875,59.71830368041992 L442.29052734375,58.900779724121094 L442.1058349609375,58.1995735168457 L441.447509765625,57.67583084106445 L440.351806640625,57.411460876464844 L438.9129943847656,57.482486724853516 L437.29266357421875,57.93027877807617 L435.6642150878906,58.73066711425781 L434.202880859375,59.81362533569336 L433.0776062011719,61.0894775390625 L432.42205810546875,62.47505187988281 L432.3301086425781,63.903900146484375 L432.8528747558594,65.2986068725586 L433.97576904296875,66.56753540039062 L435.7164306640625,67.62291717529297 L437.94427490234375,68.39791107177734 L440.4200439453125,68.88150787353516 L442.5009765625,69.1231689453125 L443.8304443359375,69.20445251464844 M473.284423828125,60.472835540771484 L473.188232421875,60.195716857910156 L472.96136474609375,59.76237106323242 L472.5213317871094,59.28160095214844 L471.7680969238281,58.95233917236328 L470.6094970703125,58.90397262573242 L469.0396728515625,59.22172164916992 L467.1846923828125,59.898929595947266 L465.3004455566406,60.859230041503906 L463.6783447265625,61.99238204956055 L462.5442810058594,63.185890197753906 L462.02154541015625,64.35910034179688 L462.10137939453125,65.46003723144531 L462.7142028808594,66.4323959350586 L463.7683410644531,67.2044448852539 L465.139404296875,67.69654083251953 L466.69940185546875,67.83924865722656 L468.3240966796875,67.58850860595703 L469.9022216796875,66.9341049194336 L471.3673095703125,65.89366149902344 L472.669921875,64.51392364501953 L473.74066162109375,62.86503601074219 L474.54132080078125,61.03984451293945 L475.0470886230469,59.131614685058594 L475.2943115234375,57.23696517944336 L475.37017822265625,55.43846130371094 L475.35699462890625,53.833641052246094 L475.2932434082031,52.519325256347656 L475.2236633300781,51.54361343383789 L475.1512451171875,50.91948699951172 L475.087158203125,50.66036605834961 L475.05029296875,50.77946472167969 L475.0415954589844,51.34773254394531 L475.03875732421875,52.448097229003906 L475.0462646484375,54.05086135864258 L475.0682678222656,56.05529022216797 L475.1059875488281,58.3170166015625 L475.1778564453125,60.66136932373047 L475.3055114746094,62.943115234375 L475.50628662109375,65.05545043945312 L475.8298645019531,66.87003326416016 L476.2906494140625,68.29215240478516 L476.8333435058594,69.28065490722656 L477.3046875,69.84205627441406 L477.60986328125,70.07555389404297 M483.7304992675781,58.27570724487305 L483.6979675292969,58.323944091796875 L483.64312744140625,58.579227447509766 L483.547607421875,59.19464111328125 L483.4000549316406,60.25925064086914 L483.1907043457031,61.72906494140625 L482.9421691894531,63.47854995727539 L482.7030944824219,65.35107421875 L482.5556335449219,67.19652557373047 L482.55316162109375,68.91352081298828 L482.697998046875,70.41685485839844 L482.9434814453125,71.64392852783203 L483.2078552246094,72.55914306640625 L483.4270935058594,73.1723861694336 L483.56414794921875,73.5285415649414 L483.6124572753906,73.69011688232422 L483.539306640625,73.68666076660156 L483.3163757324219,73.5322036743164 L482.91925048828125,73.22840118408203 L482.3714294433594,72.81993103027344 L481.63201904296875,72.33928680419922 L480.72259521484375,71.82810974121094 L479.6727294921875,71.30620574951172 L478.7521667480469,70.87995910644531 L478.13067626953125,70.59867095947266 M481.5390625,52.84185028076172 L481.59051513671875,52.90790557861328 L481.704345703125,53.0722541809082 L481.8376770019531,53.271453857421875 L481.9474792480469,53.442047119140625 M489.203857421875,58.722660064697266 L489.17950439453125,59.05180740356445 L489.1457214355469,59.762733459472656 L489.1332092285156,60.89375686645508 L489.18450927734375,62.32356262207031 L489.34625244140625,63.87950897216797 L489.6560974121094,65.37252807617188 L490.1327819824219,66.65072631835938 L490.7626953125,67.62230682373047 L491.52777099609375,68.23761749267578 L492.4056396484375,68.46900177001953 L493.3699035644531,68.29310607910156 L494.3800048828125,67.70659637451172 L495.3938903808594,66.73628997802734 L496.3203125,65.45207977294922 L497.06732177734375,63.9663200378418 L497.5968933105469,62.40192413330078 L497.89990234375,60.848960876464844 L498.00750732421875,59.373477935791016 L497.98968505859375,58.021236419677734 L497.9014892578125,56.81822967529297 L497.78643798828125,55.79592514038086 L497.7049560546875,54.97651672363281 L497.66705322265625,54.42326354980469 L497.6629638671875,54.12626266479492 M502.8558349609375,56.847721099853516 L502.8786926269531,56.92469024658203 L502.934326171875,57.19009017944336 L503.0177307128906,57.75558090209961 L503.10272216796875,58.67122268676758 L503.18121337890625,59.90156936645508 L503.25262451171875,61.351295471191406 L503.31573486328125,62.873050689697266 L503.3907470703125,64.29719543457031 L503.487548828125,65.48390197753906 L503.5843505859375,66.35098266601562 L503.6799621582031,66.86859893798828 L503.73870849609375,67.02259826660156 L503.72882080078125,66.80335235595703 L503.6580505371094,66.18897247314453 L503.56689453125,65.19371032714844 L503.49395751953125,63.926177978515625 L503.497314453125,62.52027893066406 L503.610107421875,61.10213088989258 L503.867919921875,59.75889205932617 L504.2935791015625,58.53562927246094 L504.8985290527344,57.45408630371094 L505.66241455078125,56.56165313720703 L506.55181884765625,55.884613037109375 L507.5473327636719,55.479976654052734 L508.60833740234375,55.3555908203125 L509.6667175292969,55.49018478393555 L510.50909423828125,55.72822952270508 L511.02880859375,55.94270324707031 M513.170166015625,66.72782135009766 L513.2244873046875,66.72814178466797 L513.292236328125,66.72504425048828 L513.3511962890625,66.7200698852539 L513.3790283203125,66.71476745605469 M532.8831787109375,47.63667297363281 L532.9822998046875,47.889381408691406 L533.138671875,48.49120330810547 L533.3033447265625,49.53605270385742 L533.400146484375,51.00994110107422 L533.418701171875,52.84361267089844 L533.3514404296875,54.94965362548828 L533.2491455078125,57.23403549194336 L533.1251220703125,59.59761047363281 L532.985595703125,61.940834045410156 L532.826171875,64.16409301757812 L532.6824340820312,66.18718719482422 L532.5728149414062,67.91990661621094 L532.5272827148438,69.26575469970703 L532.5386962890625,70.1636962890625 L532.5789794921875,70.63667297363281 L532.6143798828125,70.79987335205078 M527.7913818359375,49.267189025878906 L527.8028564453125,48.673667907714844 L527.9939575195312,47.77528762817383 L528.4998779296875,46.74764633178711 L529.406982421875,45.88539123535156 L530.681396484375,45.281429290771484 L532.2562255859375,45.0 L534.018798828125,45.062782287597656 L535.8656005859375,45.52490997314453 L537.6853637695312,46.403717041015625 L539.3749389648438,47.689109802246094 L540.8491821289062,49.33256912231445 L542.0584716796875,51.27046585083008 L542.9632568359375,53.43632507324219 L543.5335083007812,55.74314880371094 L543.7411499023438,58.100730895996094 L543.5576171875,60.42626190185547 L542.94677734375,62.634918212890625 L541.8997192382812,64.6723403930664 L540.4649047851562,66.48823547363281 L538.7442016601562,68.02978515625 L536.8839111328125,69.25707244873047 L535.033447265625,70.12310791015625 L533.2975463867188,70.60662841796875 L531.7723388671875,70.70386505126953 L530.5489501953125,70.45697021484375 L529.6856079101562,69.97433471679688 L529.193115234375,69.48910522460938 L528.993896484375,69.145263671875 M550.08740234375,53.631500244140625 L550.086181640625,53.61639404296875 L550.0484619140625,53.818607330322266 L549.9256591796875,54.4443244934082 L549.6900634765625,55.644630432128906 L549.3280639648438,57.37944030761719 L548.8466796875,59.51655197143555 L548.28759765625,61.865325927734375 L547.729248046875,64.24166107177734 L547.2319946289062,66.46819305419922 L546.877197265625,68.38019561767578 L546.6864624023438,69.8668212890625 L546.630126953125,70.86377716064453 L546.6712036132812,71.34611511230469 L546.8182373046875,71.31126403808594 L547.076416015625,70.73680114746094 L547.4918212890625,69.62066650390625 L548.0687255859375,68.07398223876953 L548.7840576171875,66.25883483886719 L549.6087646484375,64.35477447509766 L550.5540161132812,62.51220703125 L551.617431640625,60.843299865722656 L552.7863159179688,59.44598388671875 L553.97119140625,58.427433013916016 L555.0586547851562,57.87710952758789 L555.96484375,57.852745056152344 L556.6641845703125,58.38026428222656 L557.161376953125,59.446434020996094 L557.4945068359375,60.989463806152344 L557.6861572265625,62.853424072265625 L557.7685546875,64.83518981933594 L557.8253173828125,66.70712280273438 L557.9185180664062,68.29151916503906 L558.0523071289062,69.49107360839844 L558.2174072265625,70.28650665283203 L558.3780517578125,70.66915130615234 L558.5,70.63211822509766 L558.60498046875,70.13378143310547 L558.70458984375,69.15027618408203 L558.7759399414062,67.7489242553711 L558.81640625,66.0653305053711 L558.8209838867188,64.25637817382812 L558.817138671875,62.44340515136719 L558.8954467773438,60.69955825805664 L559.2147216796875,59.050235748291016 L559.8590698242188,57.56822204589844 L560.8161010742188,56.327056884765625 L561.7498779296875,55.472198486328125 L562.4107055664062,55.01121520996094 M583.7774658203125,47.73820495605469 L583.772216796875,48.177635192871094 L583.7715454101562,49.11872863769531 L583.7587890625,50.620174407958984 L583.7269897460938,52.560298919677734 L583.6597290039062,54.79435348510742 L583.534912109375,57.172698974609375 L583.3722534179688,59.572139739990234 L583.213134765625,61.90179443359375 L583.087890625,64.0390853881836 L583.020263671875,65.8300552368164 L583.002197265625,67.18274688720703 L582.994384765625,68.04460144042969 L582.9969482421875,68.40067291259766 L583.0394897460938,68.26261138916016 L583.1783447265625,67.62669372558594 L583.468994140625,66.49897766113281 L583.9491577148438,64.99560546875 L584.62744140625,63.270137786865234 L585.5000610351562,61.5028190612793 L586.5604248046875,59.847259521484375 L587.7930908203125,58.4256706237793 L589.1636962890625,57.3232307434082 L590.59326171875,56.63799285888672 L591.9725341796875,56.43333435058594 L593.16064453125,56.74443817138672 L594.0482177734375,57.543949127197266 L594.5598754882812,58.76968765258789 L594.6587524414062,60.29914855957031 L594.332763671875,62.00447463989258 L593.6074829101562,63.72825622558594 L592.5238647460938,65.33602905273438 L591.1639404296875,66.70602416992188 L589.6456298828125,67.75825500488281 L588.0909423828125,68.44621276855469 L586.6098022460938,68.77579498291016 L585.32275390625,68.69792175292969 L584.3209228515625,68.23200225830078 L583.6495361328125,67.43832397460938 L583.2964477539062,66.63430786132812 L583.1724243164062,66.04893493652344 M599.2850952148438,47.88798141479492 L599.2259521484375,48.19207000732422 L599.1284790039062,48.865821838378906 L598.9844970703125,49.96628952026367 L598.7939453125,51.443397521972656 L598.5501708984375,53.220794677734375 L598.25048828125,55.20207977294922 L597.9163818359375,57.309757232666016 L597.6241455078125,59.491634368896484 L597.431396484375,61.6108283996582 L597.3765258789062,63.51947021484375 L597.4181518554688,64.91515350341797 L597.4896240234375,65.70391845703125 M599.6610107421875,64.88380432128906 L599.8939208984375,64.69754791259766 L600.3965454101562,64.2908935546875 L601.2044677734375,63.625335693359375 L602.2473754882812,62.720703125 L603.4240112304688,61.61447525024414 L604.6248779296875,60.35329818725586 L605.7513427734375,58.990543365478516 L606.7227783203125,57.59300231933594 L607.48681640625,56.25652313232422 L607.9830932617188,55.06389617919922 L608.1636352539062,54.09031677246094 L608.012939453125,53.392127990722656 L607.5372314453125,53.04656982421875 L606.734130859375,53.12627029418945 L605.6695556640625,53.705413818359375 L604.4336547851562,54.79719543457031 L603.1683959960938,56.33253860473633 L602.0701904296875,58.168251037597656 L601.3260498046875,60.14957046508789 L601.060546875,62.11992645263672 L601.3406982421875,63.948055267333984 L602.150634765625,65.53633117675781 L603.3859252929688,66.81694793701172 L604.9580688476562,67.69943237304688 L606.7131958007812,68.14859771728516 L608.4935913085938,68.18394470214844 L609.9097900390625,67.99478912353516 L610.7882690429688,67.767578125 M613.177490234375,56.681434631347656 L613.1214599609375,56.52729797363281 L613.060302734375,56.40681076049805 L613.010009765625,56.49209976196289 L612.9869384765625,56.97992706298828 L612.977783203125,57.94572830200195 L612.9701538085938,59.33253860473633 L612.9727172851562,60.995304107666016 L613.0419921875,62.76079177856445 L613.23876953125,64.4515609741211 L613.592529296875,65.91895294189453 L614.0733642578125,67.08150482177734 L614.5942993164062,67.88482666015625 L615.083251953125,68.29442596435547 L615.5045166015625,68.27407836914062 L615.9086303710938,67.78005981445312 L616.3558349609375,66.78942108154297 L616.86328125,65.3707275390625 L617.4048461914062,63.66067123413086 L617.9368286132812,61.82081985473633 L618.40673828125,59.98075485229492 L618.799072265625,58.25487518310547 L619.1152954101562,56.73513412475586 L619.3280029296875,55.634613037109375 L619.4437255859375,55.011383056640625 M644.446533203125,54.46968460083008 L644.396484375,54.49711990356445 L644.2794189453125,54.715057373046875 L644.0689697265625,55.26226806640625 L643.7412109375,56.22170639038086 L643.3014526367188,57.55381393432617 L642.7799072265625,59.153865814208984 L642.2381591796875,60.87982177734375 L641.7440185546875,62.60929489135742 L641.384033203125,64.23368835449219 L641.223876953125,65.6714859008789 L641.298583984375,66.87731170654297 L641.6417236328125,67.7958984375 L642.231201171875,68.38819122314453 L642.9827880859375,68.63835906982422 L643.6613159179688,68.65267181396484 L644.1234741210938,68.56014251708984 M644.4712524414062,50.42939758300781 L644.489501953125,50.4841423034668 L644.5626220703125,50.60274887084961 L644.660888671875,50.74034118652344 L644.7545166015625,50.85205078125 M650.9902954101562,49.5704460144043 L650.880615234375,50.095436096191406 L650.69384765625,51.082332611083984 L650.4330444335938,52.50285339355469 L650.1231689453125,54.189083099365234 L649.76904296875,56.01968002319336 L649.4053955078125,57.90162658691406 L649.0833129882812,59.77922058105469 L648.85888671875,61.58747100830078 L648.7855224609375,63.250247955322266 L648.8779296875,64.71305847167969 L649.0928955078125,65.9027099609375 L649.406005859375,66.74229431152344 L649.781982421875,67.19656372070312 L650.1925048828125,67.27442932128906 L650.54638671875,67.13951110839844 L650.7904052734375,66.96253967285156 M662.4053955078125,57.245025634765625 L662.181396484375,56.97805404663086 L661.6900634765625,56.67106246948242 L660.86181640625,56.4990234375 L659.706787109375,56.68504333496094 L658.2847900390625,57.289432525634766 L656.7452392578125,58.268611907958984 L655.3016357421875,59.4964599609375 L654.19140625,60.83455276489258 L653.5849609375,62.12728500366211 L653.5384521484375,63.24991989135742 L654.01025390625,64.09991455078125 L654.8868408203125,64.59818267822266 L656.0400390625,64.70305633544922 L657.3343505859375,64.40901947021484 L658.6317138671875,63.75305938720703 L659.786376953125,62.81849670410156 L660.6986694335938,61.71245193481445 L661.3107299804688,60.54757308959961 L661.63525390625,59.4422492980957 L661.7247314453125,58.48134231567383 L661.6748046875,57.720359802246094 L661.554443359375,57.20868682861328 L661.429931640625,57.00951385498047 L661.3155517578125,57.198307037353516 L661.2183837890625,57.86848831176758 L661.124267578125,59.046451568603516 L661.0462646484375,60.67481994628906 L660.9825439453125,62.657936096191406 L660.93359375,64.90538787841797 L660.8502197265625,67.34015655517578 L660.6805419921875,69.9019775390625 L660.3475341796875,72.49505615234375 L659.801513671875,74.98855590820312 L659.043701171875,77.24636840820312 L658.1282348632812,79.15769958496094 L657.1116333007812,80.63619995117188 L656.0370483398438,81.64129638671875 L654.8974609375,82.16874694824219 L653.6534423828125,82.2576904296875 L652.3271484375,81.89141845703125 L651.02490234375,81.10846710205078 L649.8935546875,79.98734283447266 L649.1134033203125,78.9164047241211 L648.7127685546875,78.15910339355469 M669.50390625,56.328826904296875 L669.3064575195312,56.14632797241211 L668.861328125,55.93373107910156 L668.0863037109375,55.844181060791016 L666.975830078125,56.070037841796875 L665.5946655273438,56.70149230957031 L664.0711669921875,57.73476791381836 L662.611572265625,59.07257843017578 L661.44287109375,60.558380126953125 L660.7376708984375,62.03520584106445 L660.5776977539062,63.34474563598633 L660.9475708007812,64.37020111083984 L661.7460327148438,65.01544952392578 L662.8535766601562,65.23435974121094 L664.1475830078125,65.0040054321289 L665.5328979492188,64.36418151855469 L666.9090576171875,63.373924255371094 L668.1761474609375,62.13347244262695 L669.249267578125,60.7448616027832 L670.06591796875,59.32300567626953 L670.5934448242188,57.983699798583984 L670.865966796875,56.852725982666016 L670.9485473632812,55.992637634277344 L670.916015625,55.4592399597168 L670.8284912109375,55.29302215576172 L670.7083740234375,55.531002044677734 L670.5464477539062,56.22575378417969 L670.349853515625,57.37281799316406 L670.1787719726562,58.912620544433594 L670.0904541015625,60.70439910888672 L670.1243896484375,62.55615234375 L670.2286987304688,64.0357437133789 L670.3346557617188,64.95328521728516 M676.656005859375,56.96353530883789 L676.6787109375,56.96291732788086 L676.6910400390625,57.163475036621094 L676.6524658203125,57.72843933105469 L676.5218505859375,58.74024963378906 L676.286865234375,60.10774612426758 L675.9833984375,61.63520431518555 L675.6710205078125,63.0930290222168 L675.4202880859375,64.29776000976562 L675.26806640625,65.16460418701172 L675.217041015625,65.6648941040039 L675.2281494140625,65.80020904541016 L675.2540893554688,65.55534362792969 L675.274658203125,64.90672302246094 L675.2991943359375,63.85707092285156 L675.3685302734375,62.49774169921875 L675.533447265625,60.953514099121094 L675.8145141601562,59.36149597167969 L676.2215576171875,57.831668853759766 L676.7357177734375,56.439273834228516 L677.3654174804688,55.25592041015625 L678.1014404296875,54.3502311706543 L678.90380859375,53.74629592895508 L679.5779418945312,53.42367935180664 L680.01904296875,53.30307388305664 M685.7978515625,55.25641632080078 L685.8275756835938,55.32442092895508 L685.8192138671875,55.536231994628906 L685.7078247070312,55.96078109741211 L685.4329833984375,56.63034439086914 L684.9996337890625,57.52173614501953 L684.477294921875,58.57038879394531 L683.9988403320312,59.6806755065918 L683.6806640625,60.750221252441406 L683.613525390625,61.67779541015625 L683.819091796875,62.403690338134766 L684.2545166015625,62.89604187011719 L684.8499755859375,63.153411865234375 L685.53369140625,63.182376861572266 L686.2279663085938,62.98334884643555 L686.8916015625,62.54507064819336 L687.4744262695312,61.87562942504883 L687.92236328125,60.99570083618164 L688.193359375,59.962646484375 L688.256591796875,58.857173919677734 L688.1016845703125,57.75187301635742 L687.7715454101562,56.69485855102539 L687.2939453125,55.703033447265625 L686.730712890625,54.78377151489258 L686.146728515625,53.95960235595703 L685.5933227539062,53.25312042236328 L685.1729736328125,52.7512092590332 L684.931396484375,52.47105407714844 " fill="none" stroke="red" stroke-linecap="round" stroke-width="1" /></svg>